osim_states
version=1
nRows=4
nColumns=185
inDegrees=yes

# SIMM Motion File Header:
name osim_states
datacolumns 185
datarows 4
otherdata 1
range 0.06639822 0.06713380
endheader
time	platform_rx	platform_ry	platform_rz	platform_ty	pelvis_tilt	pelvis_list	pelvis_rotation	pelvis_tx	pelvis_ty	pelvis_tz	hip_flexion_r	hip_adduction_r	hip_rotation_r	knee_angle_r	patella_r_constrained_knee_angle	ankle_angle_r	subtalar_angle_r	mtp_angle_r	hip_flexion_l	hip_adduction_l	hip_rotation_l	knee_angle_l	patella_l_constrained_knee_angle	ankle_angle_l	subtalar_angle_l	mtp_angle_l	lumbar_extension	lumbar_bending	lumbar_rotation	arm_flex_r	arm_add_r	arm_rot_r	elbow_flex_r	pro_sup_r	wrist_flex_r	wrist_dev_r	arm_flex_l	arm_add_l	arm_rot_l	elbow_flex_l	pro_sup_l	wrist_flex_l	wrist_dev_l	platform_rx_u	platform_ry_u	platform_rz_u	platform_ty_u	pelvis_tilt_u	pelvis_list_u	pelvis_rotation_u	pelvis_tx_u	pelvis_ty_u	pelvis_tz_u	hip_flexion_r_u	hip_adduction_r_u	hip_rotation_r_u	knee_angle_r_u	patella_r_constrained_knee_angle_u	ankle_angle_r_u	subtalar_angle_r_u	mtp_angle_r_u	hip_flexion_l_u	hip_adduction_l_u	hip_rotation_l_u	knee_angle_l_u	patella_l_constrained_knee_angle_u	ankle_angle_l_u	subtalar_angle_l_u	mtp_angle_l_u	lumbar_extension_u	lumbar_bending_u	lumbar_rotation_u	arm_flex_r_u	arm_add_r_u	arm_rot_r_u	elbow_flex_r_u	pro_sup_r_u	wrist_flex_r_u	wrist_dev_r_u	arm_flex_l_u	arm_add_l_u	arm_rot_l_u	elbow_flex_l_u	pro_sup_l_u	wrist_flex_l_u	wrist_dev_l_u	glut_med1_r.activation	glut_med1_r.fiber_length	glut_med2_r.activation	glut_med2_r.fiber_length	glut_med3_r.activation	glut_med3_r.fiber_length	glut_min1_r.activation	glut_min1_r.fiber_length	glut_min2_r.activation	glut_min2_r.fiber_length	glut_min3_r.activation	glut_min3_r.fiber_length	semimem_r.activation	semimem_r.fiber_length	semiten_r.activation	semiten_r.fiber_length	bifemlh_r.activation	bifemlh_r.fiber_length	bifemsh_r.activation	bifemsh_r.fiber_length	sar_r.activation	sar_r.fiber_length	add_long_r.activation	add_long_r.fiber_length	add_brev_r.activation	add_brev_r.fiber_length	add_mag1_r.activation	add_mag1_r.fiber_length	add_mag2_r.activation	add_mag2_r.fiber_length	add_mag3_r.activation	add_mag3_r.fiber_length	tfl_r.activation	tfl_r.fiber_length	pect_r.activation	pect_r.fiber_length	grac_r.activation	grac_r.fiber_length	glut_max1_r.activation	glut_max1_r.fiber_length	glut_max2_r.activation	glut_max2_r.fiber_length	glut_max3_r.activation	glut_max3_r.fiber_length	iliacus_r.activation	iliacus_r.fiber_length	psoas_r.activation	psoas_r.fiber_length	quad_fem_r.activation	quad_fem_r.fiber_length	gem_r.activation	gem_r.fiber_length	peri_r.activation	peri_r.fiber_length	rect_fem_r.activation	rect_fem_r.fiber_length	vas_med_r.activation	vas_med_r.fiber_length	vas_int_r.activation	vas_int_r.fiber_length	vas_lat_r.activation	vas_lat_r.fiber_length	med_gas_r.activation	med_gas_r.fiber_length	lat_gas_r.activation	lat_gas_r.fiber_length	soleus_r.activation	soleus_r.fiber_length	tib_post_r.activation	tib_post_r.fiber_length	flex_dig_r.activation	flex_dig_r.fiber_length	flex_hal_r.activation	flex_hal_r.fiber_length	tib_ant_r.activation	tib_ant_r.fiber_length	per_brev_r.activation	per_brev_r.fiber_length	per_long_r.activation	per_long_r.fiber_length	per_tert_r.activation	per_tert_r.fiber_length	ext_dig_r.activation	ext_dig_r.fiber_length	ext_hal_r.activation	ext_hal_r.fiber_length	ercspn_r.activation	ercspn_r.fiber_length	ercspn_l.activation	ercspn_l.fiber_length	intobl_r.activation	intobl_r.fiber_length	intobl_l.activation	intobl_l.fiber_length	extobl_r.activation	extobl_r.fiber_length	extobl_l.activation	extobl_l.fiber_length
      0.06639822	     30.00000000	     -0.00000000	     -0.00000000	      0.00000000	    -15.30428273	      5.10854847	     12.47920071	     -0.41726358	      0.90517067	      0.35448535	     52.19034789	     -5.96626949	     -2.23463870	    -61.03271499	    -61.03271499	     24.92803681	      8.30474044	      0.00001318	     52.13915936	      0.00000000	     -9.99811353	   -101.98648811	   -101.98648811	      6.49999992	     -0.00000000	     -0.00000000	    -11.42394052	     -6.11061202	     -6.93687741	     -0.00000000	     -8.91003344	      0.00000000	     72.06682857	     46.23690339	      0.00000000	      4.87402477	     -0.00000000	     -8.91003344	     -0.00000000	     72.06682857	     46.23690339	     -0.00000000	      4.87402477	     -0.00000000	     -0.00000000	     -0.00000000	      0.00000000	    -29.75176118	    -46.32598128	   -146.45671487	      0.23708890	     -2.89398756	      0.42251861	    538.85366595	    123.62969984	     97.76988183	   -876.61545566	   -876.61545566	    165.43231402	    205.18394805	      0.00000000	      0.00000000	     -0.00000000	     -0.00000000	     -0.00000000	      0.00000000	      0.00000000	     -0.00000000	     -0.00000000	    -15.85962158	     40.73283116	    164.35291225	     -0.00000000	     -0.00000000	      0.00000000	     -0.00000000	     -0.00000000	      0.00000000	     -0.00000000	     -0.00000000	      0.00000000	     -0.00000000	      0.00000000	      0.00000000	     -0.00000000	     -0.00000000	      0.03983021	      0.04991562	      0.21409163	      0.09324806	      0.43589176	      0.07809258	      0.04151595	      0.06802975	      0.06050597	      0.05913417	      0.25060662	      0.04031127	      0.15764265	      0.06954495	      0.45132587	      0.23475484	      0.32447465	      0.11616027	      0.19966780	      0.15438743	      0.02594707	      0.42980400	      0.02595210	      0.10040760	      0.02594583	      0.13030434	      0.20763086	      0.08446231	      0.23141085	      0.11614250	      0.30196292	      0.14989810	      0.02643540	      0.08133318	      0.02596311	      0.06198419	      0.02594583	      0.33671910	      0.23334027	      0.10828589	      0.26919672	      0.12464733	      0.35603368	      0.15723189	      0.02594593	      0.07823985	      0.02595042	      0.07136878	      0.53415069	      0.06049206	      0.51541665	      0.02529618	      0.61100014	      0.02464416	      0.26213979	      0.11161871	      0.47081833	      0.09677056	      0.53054970	      0.09886905	      0.48785386	      0.09220684	      0.49965789	      0.05805823	      0.51094053	      0.06248039	      0.71771324	      0.05940895	      0.01000000	      0.03829440	      0.01000000	      0.03655588	      0.01000000	      0.04651111	      0.18944268	      0.08078697	      0.01000000	      0.05856936	      0.01000000	      0.05969270	      0.01000000	      0.07566646	      0.01000000	      0.09593085	      0.01000000	      0.10386196	      0.13104814	      0.13376878	      0.06241477	      0.12334571	      0.02643751	      0.09498361	      0.03849731	      0.08357765	      0.14607724	      0.13100671	      0.07634432	      0.10845482
      0.06667796	     30.00000000	     -0.00000000	     -0.00000000	      0.00000000	    -15.31260342	      5.09558143	     12.43825332	     -0.41719719	      0.90436067	      0.35460350	     52.34104850	     -5.93165480	     -2.20740725	    -61.27780566	    -61.27780566	     24.97388598	      8.36213355	      0.00001318	     52.13915936	      0.00000000	     -9.99811353	   -101.98648811	   -101.98648811	      6.49999992	     -0.00000000	     -0.00000000	    -11.42837719	     -6.09920724	     -6.89091386	     -0.00000000	     -8.91003344	      0.00000000	     72.06682857	     46.23690339	      0.00000000	      4.87402477	     -0.00000000	     -8.91003344	     -0.00000000	     72.06682857	     46.23690339	     -0.00000000	      4.87402477	     -0.00000000	     -0.00000000	     -0.00000000	      0.00000000	    -29.73618487	    -46.38055714	   -146.29231059	      0.23752014	     -2.89699595	      0.42214899	    538.56553079	    123.84359822	     96.91867985	   -875.63574205	   -875.63574205	    162.36489818	    205.14254310	      0.00000000	      0.00000000	     -0.00000000	     -0.00000000	     -0.00000000	      0.00000000	      0.00000000	     -0.00000000	     -0.00000000	    -15.85989980	     40.80446483	    164.25858141	     -0.00000000	     -0.00000000	      0.00000000	     -0.00000000	     -0.00000000	      0.00000000	     -0.00000000	     -0.00000000	      0.00000000	     -0.00000000	      0.00000000	      0.00000000	     -0.00000000	     -0.00000000	      0.03971368	      0.04991250	      0.21394587	      0.09329409	      0.43609003	      0.07817016	      0.04139228	      0.06801205	      0.06029779	      0.05913458	      0.25041572	      0.04033591	      0.15722808	      0.06950397	      0.45113307	      0.23469995	      0.32438778	      0.11616349	      0.19918112	      0.15425387	      0.02588708	      0.42954111	      0.02589210	      0.10033487	      0.02588585	      0.13029527	      0.20810137	      0.08452158	      0.23183656	      0.11623570	      0.30244962	      0.15002937	      0.02637349	      0.08125604	      0.02590306	      0.06192868	      0.02588585	      0.33661459	      0.23325818	      0.10837683	      0.26913274	      0.12475995	      0.35600028	      0.15738167	      0.02588595	      0.07816292	      0.02589042	      0.07129247	      0.53467459	      0.06058042	      0.51579587	      0.02533410	      0.61162282	      0.02469228	      0.26236299	      0.11166269	      0.47236401	      0.09691170	      0.53225253	      0.09901686	      0.48941963	      0.09234497	      0.49927734	      0.05800823	      0.51055244	      0.06242602	      0.71809453	      0.05941254	      0.01000000	      0.03828991	      0.01000000	      0.03654886	      0.01000000	      0.04650791	      0.18903527	      0.08067153	      0.01000000	      0.05859845	      0.01000000	      0.05971980	      0.01000000	      0.07560543	      0.01000000	      0.09585237	      0.01000000	      0.10377667	      0.13099579	      0.13375722	      0.06263415	      0.12336453	      0.02638892	      0.09498782	      0.03838638	      0.08355940	      0.14585253	      0.13095796	      0.07654576	      0.10848491
      0.06690588	     30.00000000	     -0.00000000	     -0.00000000	      0.00000000	    -15.31937943	      5.08500532	     12.40492577	     -0.41714302	      0.90370011	      0.35469968	     52.46377162	     -5.90340894	     -2.18539657	    -61.47728941	    -61.47728941	     25.01060864	      8.40888575	      0.00001318	     52.13915936	      0.00000000	     -9.99811353	   -101.98648811	   -101.98648811	      6.49999992	     -0.00000000	     -0.00000000	    -11.43199201	     -6.08990044	     -6.85348497	     -0.00000000	     -8.91003344	      0.00000000	     72.06682857	     46.23690339	      0.00000000	      4.87402477	     -0.00000000	     -8.91003344	     -0.00000000	     72.06682857	     46.23690339	     -0.00000000	      4.87402477	     -0.00000000	     -0.00000000	     -0.00000000	      0.00000000	    -29.72352125	    -46.42519360	   -146.15807457	      0.23787054	     -2.89944567	      0.42184769	    538.33478723	    124.01434110	     96.22598227	   -874.84180810	   -874.84180810	    159.87978524	    205.10987483	      0.00000000	      0.00000000	     -0.00000000	     -0.00000000	     -0.00000000	      0.00000000	      0.00000000	     -0.00000000	     -0.00000000	    -15.86031473	     40.86313966	    164.18107134	     -0.00000000	     -0.00000000	      0.00000000	     -0.00000000	     -0.00000000	      0.00000000	     -0.00000000	     -0.00000000	      0.00000000	     -0.00000000	      0.00000000	      0.00000000	     -0.00000000	     -0.00000000	      0.03961910	      0.04990988	      0.21382512	      0.09333148	      0.43624846	      0.07823324	      0.04129191	      0.06799762	      0.06012889	      0.05913488	      0.25025800	      0.04035592	      0.15688986	      0.06947061	      0.45097525	      0.23465536	      0.32431850	      0.11616623	      0.19878316	      0.15414532	      0.02583838	      0.42932688	      0.02584338	      0.10027578	      0.02583715	      0.13028794	      0.20847920	      0.08456992	      0.23217617	      0.11631167	      0.30283462	      0.15013631	      0.02632323	      0.08119320	      0.02585431	      0.06188352	      0.02583715	      0.33652965	      0.23318920	      0.10845076	      0.26907829	      0.12485153	      0.35596928	      0.15750346	      0.02583726	      0.07810025	      0.02584171	      0.07123031	      0.53533932	      0.06065442	      0.51609809	      0.02536499	      0.61211924	      0.02473148	      0.26253984	      0.11169822	      0.47361575	      0.09702633	      0.53363226	      0.09913696	      0.49068666	      0.09245712	      0.49896306	      0.05796754	      0.51023188	      0.06238178	      0.71840141	      0.05941557	      0.01000000	      0.03828620	      0.01000000	      0.03654314	      0.01000000	      0.04650530	      0.18870257	      0.08057754	      0.01000000	      0.05862211	      0.01000000	      0.05974181	      0.01000000	      0.07555687	      0.01000000	      0.09578842	      0.01000000	      0.10370718	      0.13095292	      0.13374779	      0.06281329	      0.12337987	      0.02634934	      0.09499125	      0.03829635	      0.08354458	      0.14566855	      0.13091825	      0.07670891	      0.10850947
      0.06713380	     30.00000000	     -0.00000000	     -0.00000000	      0.00000000	    -15.32615255	      5.07441902	     12.37162885	     -0.41708876	      0.90303899	      0.35479579	     52.58644256	     -5.87512452	     -2.16354368	    -61.67659263	    -61.67659263	     25.04676635	      8.45563062	      0.00001318	     52.13915936	      0.00000000	     -9.99811353	   -101.98648811	   -101.98648811	      6.49999992	     -0.00000000	     -0.00000000	    -11.43560695	     -6.08058023	     -6.81607383	     -0.00000000	     -8.91003344	      0.00000000	     72.06682857	     46.23690339	      0.00000000	      4.87402477	     -0.00000000	     -8.91003344	     -0.00000000	     72.06682857	     46.23690339	     -0.00000000	      4.87402477	     -0.00000000	     -0.00000000	     -0.00000000	      0.00000000	    -29.71088152	    -46.46998329	   -146.02356813	      0.23822011	     -2.90189421	      0.42154623	    538.10763538	    124.18191575	     95.53400663	   -874.05167689	   -874.05167689	    157.40772641	    205.07818273	      0.00000000	      0.00000000	     -0.00000000	     -0.00000000	     -0.00000000	      0.00000000	      0.00000000	     -0.00000000	     -0.00000000	    -15.86089646	     40.92209401	    164.10296348	     -0.00000000	     -0.00000000	      0.00000000	     -0.00000000	     -0.00000000	      0.00000000	     -0.00000000	     -0.00000000	      0.00000000	     -0.00000000	      0.00000000	      0.00000000	     -0.00000000	     -0.00000000	      0.03952485	      0.04990720	      0.21370270	      0.09336878	      0.43640497	      0.07829623	      0.04119189	      0.06798319	      0.05996063	      0.05913516	      0.25009835	      0.04037589	      0.15655124	      0.06943726	      0.45081678	      0.23461089	      0.32425057	      0.11616907	      0.19838394	      0.15403700	      0.02578984	      0.42911261	      0.02579482	      0.10021684	      0.02578861	      0.13028065	      0.20885168	      0.08461831	      0.23250919	      0.11638767	      0.30320947	      0.15024323	      0.02627314	      0.08113038	      0.02580572	      0.06183843	      0.02578861	      0.33644490	      0.23311842	      0.10852453	      0.26902182	      0.12494295	      0.35593495	      0.15762504	      0.02578872	      0.07803758	      0.02579315	      0.07116815	      0.53573147	      0.06072649	      0.51639423	      0.02539587	      0.61260598	      0.02477068	      0.26271226	      0.11173347	      0.47485986	      0.09714063	      0.53500524	      0.09925676	      0.49194615	      0.09256892	      0.49864503	      0.05792690	      0.50990745	      0.06233759	      0.71870500	      0.05941870	      0.01000000	      0.03828244	      0.01000000	      0.03653743	      0.01000000	      0.04650271	      0.18836918	      0.08048362	      0.01000000	      0.05864574	      0.01000000	      0.05976375	      0.01000000	      0.07551975	      0.01000000	      0.09572447	      0.01000000	      0.10363769	      0.13090986	      0.13373837	      0.06299279	      0.12339523	      0.02630978	      0.09499466	      0.03820663	      0.08352980	      0.14548377	      0.13087855	      0.07687120	      0.10853408
